<svg xmlns="http://www.w3.org/2000/svg" width="66" height="95.926" viewBox="0 0 66 95.926">
  <g id="logo" transform="translate(-265 -15.074)">
    <g id="Group_3103" data-name="Group 3103" transform="translate(270.279 15.074)">
      <g id="Group_3102" data-name="Group 3102" transform="translate(18.894 4.955)">
        <path id="Path_3645" data-name="Path 3645" d="M929.391,474.173l-4.2,12.908s6.34-2.122,12.524-10.55l-5.535-3.38A1.893,1.893,0,0,0,929.391,474.173Z" transform="translate(-902.356 -437.959)" fill="#00568a"/>
        <path id="Path_3646" data-name="Path 3646" d="M914.939,482.763a1.616,1.616,0,0,0,1.193-.294c2.116-1.551,11.048-8.319,13.879-13.993,3.218-6.454,4.5-14.817,3.555-17.678,0,0-13.979,5.081-22.788,21.249C910.778,472.046,910.148,482.067,914.939,482.763Z" transform="translate(-910.751 -450.797)" fill="#00568a"/>
      </g>
      <path id="Path_3647" data-name="Path 3647" d="M930.988,514.242a23.5,23.5,0,0,1-4.25.386c-15.428,0-27.935-15.055-27.935-33.626,0-16.086,9.383-29.534,21.92-32.844-2.534,4.06-11.629,16.369-8.858,38.858C914.42,507.752,928.769,513.477,930.988,514.242Z" transform="translate(-898.804 -447.377)" fill="#595a5a"/>
      <path id="Path_3648" data-name="Path 3648" d="M948.078,478.095c-3.373,11.275-11.605,19.755-21.656,21.773-2.22-.764-16.521-6.473-19.108-27.122.231,1.37,3.093,15.986,20.011,16.97C937.425,490.3,945.038,482.041,948.078,478.095Z" transform="translate(-893.855 -433.078)" fill="#00b8af"/>
      <path id="Path_3649" data-name="Path 3649" d="M935.587,451.915c-3.038,1.262-22.045,10.041-28.145,34.79a67.184,67.184,0,0,1-.459-7.756,52.22,52.22,0,0,1,9.375-30.6,23.454,23.454,0,0,1,5.622-.682A24.247,24.247,0,0,1,935.587,451.915Z" transform="translate(-894.048 -447.664)" fill="#00b8af"/>
    </g>
    <text id="eshaafi" transform="translate(265 107)" fill="#00568a" font-size="19" font-family="Helvetica-Bold, Helvetica" font-weight="700"><tspan x="0" y="0">eshaafi</tspan></text>
  </g>
</svg>
